<?xml version="1.0" encoding="utf-8"?>
<!-- Generator: Adobe Illustrator 21.0.0, SVG Export Plug-In . SVG Version: 6.00 Build 0)  -->
<svg version="1.1" id="Layer_1" xmlns="http://www.w3.org/2000/svg" xmlns:xlink="http://www.w3.org/1999/xlink" x="0px" y="0px"
	 viewBox="0 0 1920 1080" style="enable-background:new 0 0 1920 1080;" xml:space="preserve">
<style type="text/css">
	.st0{fill:#004655;}
</style>
<g>
	<path class="st0" d="M343.8,257.9l45.7,45.7c2.6,2.6,2.6,5.2,0,7.8c-1,1-2.3,1.6-3.9,1.6s-2.9-0.5-3.9-1.6l-45.7-45.7v30.5
		c0,3.6-1.8,5.5-5.5,5.5c-3.6,0-5.5-1.8-5.5-5.5v-43.8c0-3.6,1.8-5.5,5.5-5.5h43.8c3.6,0,5.5,1.8,5.5,5.5c0,3.6-1.8,5.5-5.5,5.5
		H343.8z M385.5,331c1.6,0,2.9,0.5,3.9,1.6c2.6,2.6,2.6,5.2,0,7.8l-45.7,45.7h30.5c3.6,0,5.5,1.8,5.5,5.5c0,3.6-1.8,5.5-5.5,5.5
		h-43.8c-3.6,0-5.5-1.8-5.5-5.5v-43.8c0-3.6,1.8-5.5,5.5-5.5c3.6,0,5.5,1.8,5.5,5.5v30.5l45.7-45.7C382.7,331.5,384,331,385.5,331z
		 M469.5,247c3.6,0,5.5,1.8,5.5,5.5v43.8c0,3.6-1.8,5.5-5.5,5.5c-3.6,0-5.5-1.8-5.5-5.5v-30.5l-45.7,45.7c-1,1-2.3,1.6-3.9,1.6
		s-2.9-0.5-3.9-1.6c-2.6-2.6-2.6-5.2,0-7.8l45.7-45.7h-30.5c-3.6,0-5.5-1.8-5.5-5.5c0-3.6,1.8-5.5,5.5-5.5H469.5z M469.5,342.3
		c3.6,0,5.5,1.8,5.5,5.5v43.8c0,3.6-1.8,5.5-5.5,5.5h-43.8c-3.6,0-5.5-1.8-5.5-5.5c0-3.6,1.8-5.5,5.5-5.5h30.5l-45.7-45.7
		c-2.6-2.6-2.6-5.2,0-7.8c1-1,2.3-1.6,3.9-1.6s2.9,0.5,3.9,1.6l45.7,45.7v-30.5C464.1,344.1,465.9,342.3,469.5,342.3z"/>
</g>
</svg>
