<?xml version="1.0" encoding="utf-8"?>
<!-- Generator: Adobe Illustrator 21.0.0, SVG Export Plug-In . SVG Version: 6.00 Build 0)  -->
<svg version="1.1" id="Layer_1" xmlns="http://www.w3.org/2000/svg" xmlns:xlink="http://www.w3.org/1999/xlink" x="0px" y="0px"
	 viewBox="0 0 1920 1080" style="enable-background:new 0 0 1920 1080;" xml:space="preserve">
<style type="text/css">
	.st0{fill:#FFFFFF;}
</style>
<g>
	<path class="st0" d="M530.9,351.2c15.9-15.9,35-23.8,57.4-23.8s41.5,7.9,57.4,23.8s23.8,35,23.8,57.4s-7.9,41.5-23.8,57.4
		c-15.9,15.9-35,23.8-57.4,23.8s-41.5-7.9-57.4-23.8s-23.8-35-23.8-57.4C507.1,386.2,515.1,367.1,530.9,351.2z M538.8,359
		c-8.1,8.1-13.9,17.5-17.6,28.1l34.8,2.3c3.1-5.7,7.5-10.2,13.3-13.3l-2.3-34.8C556.2,345.1,546.8,350.9,538.8,359z M566.9,475.8
		l2.3-34.8c-5.7-3.1-10.2-7.5-13.3-13.3l-34.8,2.3c3.6,10.7,9.5,20.1,17.6,28.1C546.8,466.3,556.2,472.1,566.9,475.8z M569.6,427.4
		c5.2,5.2,11.5,7.8,18.8,7.8s13.5-2.6,18.8-7.8c5.2-5.2,7.8-11.5,7.8-18.8s-2.6-13.5-7.8-18.8c-5.2-5.2-11.5-7.8-18.8-7.8
		s-13.5,2.6-18.8,7.8c-5.2,5.2-7.8,11.5-7.8,18.8S564.4,422.1,569.6,427.4z M609.8,341.4l-2.3,34.8c5.7,3.1,10.2,7.6,13.3,13.3
		l34.8-2.3c-3.6-10.7-9.5-20-17.6-28.1C629.9,350.9,620.5,345.1,609.8,341.4z M638,458.2c8.1-8.1,13.9-17.6,17.6-28.5l-34.8-2.3
		c-3.4,6-7.8,10.5-13.3,13.7l2.3,34.8C620.5,472.1,629.9,466.3,638,458.2z"/>
</g>
</svg>
