<?xml version="1.0" encoding="utf-8"?>
<!-- Generator: Adobe Illustrator 21.0.0, SVG Export Plug-In . SVG Version: 6.00 Build 0)  -->
<svg version="1.1" id="Layer_1" xmlns="http://www.w3.org/2000/svg" xmlns:xlink="http://www.w3.org/1999/xlink" x="0px" y="0px"
	 viewBox="0 0 1920 1080" style="enable-background:new 0 0 1920 1080;" xml:space="preserve">
<style type="text/css">
	.st0{fill:#004655;}
</style>
<g>
	<path class="st0" d="M459.4,247c1.8,0,2.7,1,2.7,3.1v83.6c0,2.3-0.9,3.5-2.7,3.5h-73L351.2,372v-34.8h-22.3c-0.8,0-1.6-0.4-2.5-1.2
		c-0.9-0.8-1.4-1.6-1.4-2.3v-83.6c0-2.1,1.3-3.1,3.9-3.1H459.4z M484.4,271.6c2.1,0,3.1,1.2,3.1,3.5v83.6c0,2.3-1,3.5-3.1,3.5h-22.3
		V397L427,362.2h-50.8l15.2-15.2h70.7c6.5,0,9.8-3.4,9.8-10.2v-65.2H484.4z"/>
</g>
</svg>
