<?xml version="1.0" encoding="utf-8"?>
<!-- Generator: Adobe Illustrator 21.0.0, SVG Export Plug-In . SVG Version: 6.00 Build 0)  -->
<svg version="1.1" id="Layer_1" xmlns="http://www.w3.org/2000/svg" xmlns:xlink="http://www.w3.org/1999/xlink" x="0px" y="0px"
	 viewBox="0 0 1920 1080" style="enable-background:new 0 0 1920 1080;" xml:space="preserve">
<style type="text/css">
	.st0{fill:none;stroke:#004655;stroke-width:5;stroke-miterlimit:10;}
	.st1{fill:#004655;}
</style>
<polyline class="st0" points="991,410 862,410 862,260 1112,260 1112,410 1090,410 "/>
<g>
	<path class="st1" d="M1040.8,363.6c8.4,0,15.3-6.8,15.3-15.3c0-8.4-6.8-15.3-15.3-15.3s-15.3,6.8-15.3,15.3
		C1025.6,356.7,1032.4,363.6,1040.8,363.6z M1040.8,338.4c5.5,0,9.9,4.5,9.9,9.9c0,5.5-4.5,9.9-9.9,9.9c-5.5,0-9.9-4.5-9.9-9.9
		C1030.9,342.8,1035.3,338.4,1040.8,338.4z"/>
	<path class="st1" d="M1022.5,379.6c0-4.1,3.3-7.4,7.4-7.4h21.9c4.1,0,7.4,3.3,7.4,7.4v0.2h5.3v-0.2c0-7-5.7-12.7-12.7-12.7h-21.9
		c-7,0-12.7,5.7-12.7,12.7v0.2h5.3V379.6z"/>
	<path class="st1" d="M1017.9,424.4v-13.1v-13.4h-2.7h-2.7v6.4l-4.1-4.7v-9.1h64.6v9.1l-4.1,4.7v-6.4h-2.7h-2.7v13.4v9.5
		c1.9,0.8,3.7,1.8,5.3,3.1v-11.6l9.4-10.7v-16.4h-75.2v16.4l9.4,10.7v8.8C1014.6,421.9,1016.4,423,1017.9,424.4z"/>
</g>
</svg>
