<?xml version="1.0" encoding="utf-8"?>
<!-- Generator: Adobe Illustrator 21.0.0, SVG Export Plug-In . SVG Version: 6.00 Build 0)  -->
<svg version="1.1" id="Layer_1" xmlns="http://www.w3.org/2000/svg" xmlns:xlink="http://www.w3.org/1999/xlink" x="0px" y="0px"
	 viewBox="0 0 1920 1080" style="enable-background:new 0 0 1920 1080;" xml:space="preserve">
<style type="text/css">
	.st0{fill:none;stroke:#004655;stroke-width:7;stroke-miterlimit:10;}
</style>
<path class="st0" d="M956.9,521.5c9.6,0,17.4-7.8,17.4-17.4V465c0-9.6-7.8-17.4-17.4-17.4s-17.4,7.8-17.4,17.4"/>
<path class="st0" d="M974.3,465v-58v-15.9c0-14.4-11.7-26.1-26.1-26.1c-12,0-22.1,8.1-25.1,19.1c-0.7,2.2-1,4.6-1,7
	c0,4.2,1,8.2,2.7,11.7"/>
<path class="st0" d="M974.3,508.5v30.4c0,14.4-11.7,26.1-26.1,26.1s-26.1-11.7-26.1-26.1c0-2.5,0.3-5,1-7.3"/>
<path class="st0" d="M908.8,425.3c-15.2,6.8-25.8,22-25.8,39.7c0,12.1,5,23.1,13,31c4.8,4.7,10.7,8.3,17.3,10.4"/>
<path class="st0" d="M893.2,437.1c-1-3.6-1.5-7.3-1.5-11.2c0-19.8,13.3-36.5,31.4-41.7"/>
<path class="st0" d="M896,496c-2.8,5-4.3,10.7-4.3,16.8c0,18.3,14,33.2,31.9,34.7"/>
<path class="st0" d="M952.6,412.8c12,0,21.7-9.7,21.7-21.7"/>
<path class="st0" d="M919.8,480.4c4,3.9,9.4,6.3,15.4,6.3s11.4-2.4,15.4-6.3"/>
<path class="st0" d="M935.2,427.4c9,3.2,15.7,11.2,17.1,20.9"/>
<path class="st0" d="M935.2,486.7c0,8-3,15.2-8.1,20.6"/>
<path class="st0" d="M1009.1,521.5c-9.6,0-17.4-7.8-17.4-17.4V465c0-9.6,7.8-17.4,17.4-17.4c9.6,0,17.4,7.8,17.4,17.4"/>
<path class="st0" d="M1041.1,402.7c1.7-3.5,2.7-7.4,2.7-11.7c0-2.4-0.3-4.7-1-7c-3-11-13.1-19.1-25.1-19.1
	c-14.4,0-26.1,11.7-26.1,26.1V407v58"/>
<path class="st0" d="M1042.8,531.6c0.7,2.3,1,4.8,1,7.3c0,14.4-11.7,26.1-26.1,26.1c-14.4,0-26.1-11.7-26.1-26.1v-30.4"/>
<path class="st0" d="M1052.7,506.4c6.6-2.1,12.5-5.7,17.3-10.4c8-7.9,13-18.9,13-31c0-17.7-10.6-32.9-25.8-39.7"/>
<path class="st0" d="M1042.9,384.1c18.1,5.2,31.4,22,31.4,41.7c0,3.9-0.5,7.7-1.5,11.2"/>
<path class="st0" d="M1042.4,547.5c17.9-1.4,31.9-16.4,31.9-34.7c0-6.1-1.6-11.8-4.3-16.8"/>
<path class="st0" d="M1013.4,412.8c-12,0-21.7-9.7-21.7-21.7"/>
<path class="st0" d="M1015.4,480.4c4,3.9,9.4,6.3,15.4,6.3s11.4-2.4,15.4-6.3"/>
<path class="st0" d="M1013.7,448.3c1.3-9.7,8.1-17.7,17.1-20.9"/>
<path class="st0" d="M1038.9,507.3c-5-5.4-8.1-12.6-8.1-20.6"/>
</svg>
